<?xml version="1.0" encoding="UTF-8"?>
<svg id="Camada_2" data-name="Camada 2" xmlns="http://www.w3.org/2000/svg" viewBox="0 0 401.13 128.79">
  <defs>
    <style>
      .cls-1 {
        fill: #c4007a;
      }

      .cls-1, .cls-2, .cls-3 {
        stroke-width: 0px;
      }

      .cls-2 {
        fill: #a0156e;
      }

      .cls-3 {
        fill: #8ac2c3;
      }
    </style>
  </defs>
  <g id="Camada_1-2" data-name="Camada 1">
    <g>
      <path class="cls-1" d="M164.36,49.93h-17.12c.34.89.89,1.78,1.64,2.39,1.43,1.37,3.48,2.19,5.8,2.19,1.98,0,4.09-.62,5.53-1.64,2.04-1.51,4.84-.89,6.34,1.23,1.36,2.12.82,5.13-1.23,6.57-2.93,2.12-6.82,3.28-10.64,3.28-4.71,0-8.93-1.71-12.14-4.79-1.5-1.5-2.73-3.28-3.55-5.34-.95-1.99-1.43-4.24-1.43-6.57v-.55c0-2.33.48-4.51,1.37-6.64.89-2.05,2.04-3.83,3.48-5.41,1.57-1.57,3.27-2.81,5.25-3.7,2.04-.89,4.23-1.23,6.48-1.23,3.96,0,7.84,1.23,10.71,3.69,3.14,2.6,5.18,6.3,5.66,10.47.41,2.94-1.7,5.68-4.57,6.02-.21,0-.41.07-.68.07-.21,0-.48-.07-.61-.07h-.27ZM158.98,42.41h1.57c-.61-2.46-3.27-4.24-6.41-4.24s-5.87,1.78-6.55,4.24h11.46-.07Z"/>
      <path class="cls-1" d="M193.14,58.55c0,3.01-2.39,5.41-5.32,5.41-3.82,0-7.37-1.51-10.03-4.11-2.66-2.74-4.16-6.29-4.16-10.13v-25.52c0-2.94,2.39-5.34,5.39-5.34s5.32,2.4,5.32,5.34v5.54h4.09c2.59,0,4.7,2.12,4.7,4.79s-2.11,4.72-4.7,4.72h-4.09v10.47c0,1.92,1.57,3.49,3.48,3.49,2.93,0,5.32,2.39,5.32,5.34"/>
      <path class="cls-1" d="M203.31,63.96c-3,0-5.39-2.46-5.39-5.4v-23.4c0-2.94,2.39-5.4,5.39-5.4s5.32,2.46,5.32,5.4v23.4c0,2.94-2.39,5.4-5.32,5.4M208.22,22.77c0,2.74-2.18,4.93-4.91,4.93s-4.98-2.19-4.98-4.93,2.25-4.86,4.98-4.86,4.91,2.19,4.91,4.86Z"/>
      <path class="cls-1" d="M247.5,55.88v13.48c0,2.94-2.46,5.41-5.39,5.41s-5.39-2.46-5.39-5.41v-6.64c-1.98.82-4.09,1.23-6.21,1.23-9.48,0-17.12-7.66-17.12-17.11s7.64-17.11,17.12-17.11c3,0,5.8.82,8.25,2.19.89-1.3,2.39-2.19,4.02-2.19,2.59,0,4.71,2.12,4.71,4.72v21.42ZM234.95,51.37c1.23-1.16,1.91-2.81,1.91-4.52s-.68-3.35-1.91-4.52c-1.23-1.23-2.8-1.85-4.43-1.85-1.77,0-3.34.62-4.57,1.85-1.16,1.16-1.84,2.81-1.84,4.52s.68,3.35,1.84,4.52c1.23,1.23,2.8,1.85,4.57,1.85,1.64,0,3.21-.62,4.43-1.85Z"/>
      <path class="cls-1" d="M265.85,63.96c-4.02,0-7.77-1.57-10.57-4.38-2.8-2.87-4.36-6.64-4.36-10.61v-13.82c0-3.01,2.39-5.41,5.32-5.41s5.39,2.39,5.39,5.41v13.82c0,2.33,1.91,4.24,4.23,4.24s4.16-1.92,4.16-4.24v-13.82c0-3.01,2.46-5.41,5.39-5.41s5.39,2.39,5.39,5.41v13.82c0,3.97-1.57,7.73-4.43,10.61-2.8,2.8-6.55,4.38-10.5,4.38"/>
      <path class="cls-1" d="M310.66,49.93h-17.12c.34.89.89,1.78,1.64,2.39,1.43,1.37,3.48,2.19,5.8,2.19,1.98,0,4.09-.62,5.52-1.64,2.05-1.51,4.84-.89,6.34,1.23,1.36,2.12.82,5.13-1.23,6.57-2.93,2.12-6.82,3.28-10.64,3.28-4.71,0-8.93-1.71-12.14-4.79-1.5-1.5-2.73-3.28-3.55-5.34-.95-1.99-1.43-4.24-1.43-6.57v-.55c0-2.33.48-4.51,1.37-6.64.89-2.05,2.04-3.83,3.48-5.41,1.57-1.57,3.27-2.81,5.25-3.7,2.04-.89,4.23-1.23,6.48-1.23,3.96,0,7.84,1.23,10.71,3.69,3.14,2.6,5.18,6.3,5.66,10.47.41,2.94-1.71,5.68-4.57,6.02-.21,0-.41.07-.68.07-.21,0-.48-.07-.61-.07h-.27ZM305.27,42.41h1.57c-.61-2.46-3.27-4.24-6.41-4.24s-5.87,1.78-6.55,4.24h11.46-.07Z"/>
      <path class="cls-1" d="M339.44,58.55c0,3.01-2.39,5.41-5.32,5.41-3.82,0-7.37-1.51-10.03-4.11-2.66-2.74-4.16-6.29-4.16-10.13v-25.52c0-2.94,2.39-5.34,5.39-5.34s5.32,2.4,5.32,5.34v5.54h4.09c2.59,0,4.7,2.12,4.7,4.79s-2.11,4.72-4.7,4.72h-4.09v10.47c0,1.92,1.57,3.49,3.48,3.49,2.93,0,5.32,2.39,5.32,5.34"/>
      <path class="cls-1" d="M376.61,34.47v24.7c0,2.6-2.11,4.72-4.71,4.72-1.7,0-3.14-.89-4.02-2.19-2.45,1.37-5.32,2.19-8.32,2.19-9.41,0-17.05-7.66-17.05-17.11s7.64-17.11,17.05-17.11c3.07,0,5.93.82,8.39,2.19.89-1.23,2.32-2.12,3.95-2.12,2.59,0,4.71,2.12,4.71,4.72M365.9,46.78c0-1.71-.68-3.28-1.84-4.52-1.23-1.23-2.8-1.85-4.5-1.85s-3.27.62-4.5,1.85c-1.23,1.23-1.84,2.81-1.84,4.52s.61,3.28,1.84,4.52c1.23,1.16,2.8,1.85,4.5,1.85s3.27-.68,4.5-1.85c1.16-1.23,1.84-2.81,1.84-4.52Z"/>
      <path class="cls-1" d="M389.77,63.96c-2.59.07-5.59-.82-7.64-2.12-2.18-1.44-2.8-4.31-1.36-6.5,1.23-1.85,3.89-2.81,5.93-1.71.48.27.96.55,1.5.68.95.27,2.32.27,3-.55.34-.34.48-.82.41-1.3-.2-1.23-1.5-1.37-2.52-1.64-.82-.2-1.57-.48-2.32-.82-1.16-.62-2.18-1.3-3.14-2.19-2.11-1.98-3.34-4.45-3.41-7.05-.14-2.8.89-5.54,2.86-7.66,1.91-2.05,4.5-3.29,7.23-3.49,2.32-.14,4.98.41,6.82,1.51,2.25,1.3,3.07,4.17,1.71,6.43-1.3,2.26-4.16,3.01-6.41,1.71-.82-.41-2.32-.55-2.59.68-.2,1.03.75,1.51,1.5,1.71.68.27,1.43.34,2.18.55,1.16.41,2.32,1.03,3.34,1.85.41.34.89.75,1.3,1.16,1.77,1.92,2.8,4.45,2.93,7.12.07,3.01-1.02,5.88-3.14,8.07-1.98,2.05-4.64,3.28-7.57,3.56h-.61Z"/>
      <path class="cls-2" d="M194.95,81.28v24.7c0,2.6-2.11,4.72-4.71,4.72-1.7,0-3.14-.89-4.02-2.19-2.45,1.37-5.32,2.19-8.32,2.19-9.41,0-17.05-7.66-17.05-17.1s7.64-17.11,17.05-17.11c3.07,0,5.93.82,8.39,2.19.89-1.23,2.32-2.12,3.95-2.12,2.59,0,4.71,2.12,4.71,4.72M184.24,93.59c0-1.71-.68-3.28-1.84-4.52-1.23-1.23-2.8-1.85-4.5-1.85s-3.27.62-4.5,1.85c-1.23,1.23-1.84,2.81-1.84,4.52s.61,3.28,1.84,4.52c1.23,1.16,2.8,1.85,4.5,1.85s3.27-.69,4.5-1.85c1.16-1.23,1.84-2.81,1.84-4.52Z"/>
      <path class="cls-2" d="M232.19,93.8v12.25c0,2.6-2.11,4.72-4.71,4.72-1.64,0-3.14-.89-3.96-2.19-2.52,1.37-5.39,2.19-8.39,2.19-9.48,0-17.12-7.66-17.12-17.11s7.64-17.17,17.12-17.17c2.18,0,4.36.41,6.27,1.16v-6.57c0-2.94,2.46-5.34,5.46-5.34s5.32,2.4,5.32,5.34v22.72ZM221.48,93.66c0-1.71-.61-3.35-1.84-4.52-1.23-1.23-2.8-1.91-4.5-1.91s-3.34.68-4.57,1.91c-1.16,1.16-1.84,2.81-1.84,4.52s.68,3.28,1.84,4.45c1.23,1.23,2.86,1.92,4.57,1.92s3.27-.68,4.5-1.92c1.23-1.16,1.84-2.74,1.84-4.45Z"/>
      <path class="cls-2" d="M262.06,96.74h-17.12c.34.89.89,1.78,1.64,2.39,1.43,1.37,3.48,2.19,5.8,2.19,1.98,0,4.09-.62,5.52-1.64,2.05-1.5,4.84-.89,6.34,1.23,1.36,2.12.82,5.13-1.23,6.57-2.93,2.12-6.82,3.29-10.64,3.29-4.71,0-8.93-1.71-12.14-4.79-1.5-1.5-2.73-3.28-3.55-5.34-.95-1.99-1.43-4.24-1.43-6.57v-.55c0-2.33.48-4.52,1.37-6.64.89-2.05,2.05-3.83,3.48-5.41,1.57-1.57,3.27-2.8,5.25-3.69,2.04-.89,4.23-1.23,6.48-1.23,3.96,0,7.84,1.23,10.71,3.69,3.14,2.6,5.18,6.29,5.66,10.47.41,2.94-1.7,5.68-4.57,6.02-.2,0-.41.07-.68.07-.21,0-.48-.07-.61-.07h-.27ZM256.68,89.21h1.57c-.61-2.46-3.27-4.24-6.41-4.24s-5.87,1.78-6.55,4.24h11.46-.07Z"/>
      <path class="cls-2" d="M281.09,110.77c-2.59.07-5.59-.82-7.64-2.12-2.18-1.44-2.8-4.31-1.36-6.5,1.23-1.85,3.89-2.81,5.93-1.71.48.27.96.55,1.5.68.95.27,2.32.27,3-.55.34-.34.48-.82.41-1.3-.21-1.23-1.5-1.37-2.52-1.64-.82-.21-1.57-.48-2.32-.82-1.16-.62-2.18-1.3-3.14-2.19-2.11-1.99-3.34-4.45-3.41-7.05-.14-2.8.89-5.54,2.86-7.66,1.91-2.05,4.5-3.28,7.23-3.49,2.32-.14,4.98.41,6.82,1.51,2.25,1.3,3.07,4.17,1.71,6.43-1.3,2.26-4.16,3.01-6.41,1.71-.82-.41-2.32-.55-2.59.68-.2,1.03.75,1.5,1.5,1.71.68.27,1.43.34,2.18.55,1.16.41,2.32,1.03,3.34,1.85.41.34.89.75,1.3,1.16,1.77,1.92,2.8,4.45,2.93,7.11.07,3.01-1.02,5.89-3.14,8.07-1.98,2.05-4.64,3.28-7.57,3.56h-.61Z"/>
      <path class="cls-2" d="M301.9,110.77c-3,0-5.39-2.46-5.39-5.41v-23.4c0-2.94,2.39-5.41,5.39-5.41s5.32,2.46,5.32,5.41v23.4c0,2.94-2.39,5.41-5.32,5.41M306.8,69.58c0,2.74-2.18,4.93-4.91,4.93s-4.98-2.19-4.98-4.93,2.25-4.86,4.98-4.86,4.91,2.19,4.91,4.86Z"/>
      <path class="cls-2" d="M340.77,84.01l-9.55,23.4c-.07.07-.07.14-.07.2h-.07s-.07.07-.07.14v.07q-.07.07-.14.14v.14q-.07.07-.07.14l-.07.07-.07.07-.07.07c0,.07-.07.07-.07.14v.07s-.07,0-.07.07c0,0-.07,0-.07.07-.07,0-.07.07-.07.07-.07,0-.07.07-.14.07v.07l-.07.07-.07.07c-.07.07-.21.21-.27.27-.34.27-.75.55-1.09.75-.07,0-.14.07-.2.07-.07.07-.14.07-.14.14h-.07c-.07,0-.14.07-.14.07-.07,0-.14.07-.2.07-.14,0-.27,0-.34.07-.27.07-.55.14-.75.14-.2.07-.34.07-.41.07h-.41c-.41,0-.82-.07-1.16-.21-.14-.07-.2-.07-.41-.07-.07,0-.07-.07-.14-.07q-.07-.07-.2-.07s0-.07-.07-.07c0,0-.07,0-.07-.07-.07,0-.14-.07-.2-.07h-.07c-.41-.2-.75-.48-1.09-.75q-.07-.07-.14-.14c0-.07-.07-.14-.14-.21-.07,0-.14,0-.14-.07v-.07l-.07-.07-.07-.07c0-.07-.07-.07-.07-.07-.07,0-.07-.07-.07-.07l-.07-.07v-.14c-.07,0-.07-.07-.07-.07-.07,0-.07-.07-.07-.07-.07,0-.07-.07-.07-.07,0-.07-.07-.07-.07-.14q-.07-.07-.14-.14v-.21c-.07-.07-.07-.14-.14-.14,0-.07-.07-.14-.07-.2l-9.55-23.4c-1.16-2.81.14-5.95,2.93-7.05,2.73-1.16,5.8.2,6.96,2.94l4.57,11.29,4.71-11.29c1.09-2.74,4.23-4.11,6.96-2.94,2.73,1.09,4.02,4.24,2.93,7.05"/>
      <path class="cls-2" d="M377.32,93.66c0,9.44-7.64,17.11-17.05,17.11s-17.05-7.66-17.05-17.11,7.64-17.11,17.05-17.11,17.05,7.66,17.05,17.11M355.77,89.15c-1.23,1.16-1.84,2.81-1.84,4.52s.61,3.28,1.84,4.52c1.23,1.16,2.8,1.85,4.5,1.85s3.27-.68,4.5-1.85c1.16-1.23,1.84-2.81,1.84-4.52s-.68-3.35-1.84-4.52c-1.23-1.23-2.8-1.92-4.5-1.92s-3.27.68-4.5,1.92Z"/>
      <path class="cls-2" d="M389.81,110.77c-2.59.07-5.59-.82-7.64-2.12-2.18-1.44-2.8-4.31-1.36-6.5,1.23-1.85,3.89-2.81,5.93-1.71.48.27.96.55,1.5.68.95.27,2.32.27,3-.55.34-.34.48-.82.41-1.3-.2-1.23-1.5-1.37-2.52-1.64-.82-.21-1.57-.48-2.32-.82-1.16-.62-2.18-1.3-3.14-2.19-2.11-1.99-3.34-4.45-3.41-7.05-.14-2.8.89-5.54,2.86-7.66,1.91-2.05,4.5-3.28,7.23-3.49,2.32-.14,4.98.41,6.82,1.51,2.25,1.3,3.07,4.17,1.71,6.43-1.3,2.26-4.16,3.01-6.41,1.71-.82-.41-2.32-.55-2.59.68-.2,1.03.75,1.5,1.5,1.71.68.27,1.43.34,2.18.55,1.16.41,2.32,1.03,3.34,1.85.41.34.89.75,1.3,1.16,1.77,1.92,2.8,4.45,2.93,7.11.07,3.01-1.02,5.89-3.14,8.07-1.98,2.05-4.64,3.28-7.57,3.56h-.61Z"/>
      <path class="cls-3" d="M158.63,102.85c1.7,2.18,1.47,5.28-.62,7.15-.93.78-2.09,1.16-3.25,1.16-1.47,0-2.94-.62-3.95-1.79l-1.63-2.02c-.39.23-.7.54-1.08.78-2.94,2.02-6.35,3.03-9.76,3.03-2.4,0-4.72-.47-6.81-1.4-2.09-.85-3.95-2.18-5.58-3.65-1.63-1.63-2.86-3.5-3.72-5.67-.85-2.17-1.32-4.35-1.32-6.76,0-3.26.85-6.45,2.55-9.25.85-1.4,1.94-2.72,3.18-3.81-2.09-2.56-3.18-5.75-3.18-9.09,0-3.96,1.55-7.69,4.34-10.57,2.87-2.72,6.5-4.27,10.53-4.27s7.59,1.55,10.46,4.27c2.71,2.88,4.26,6.61,4.26,10.57s-1.55,7.61-4.26,10.49c-1.47,1.4-3.17,2.56-5.03,3.26l4.26,4.97,2.17-4.43c1.16-2.56,4.18-3.57,6.74-2.41,2.55,1.24,3.56,4.27,2.4,6.76l-4.18,8.55,3.48,4.12ZM142.6,99.59l-9.45-11.19c-1.32,1.4-2.17,3.26-2.17,5.28,0,4.04,3.25,7.31,7.36,7.31,1.55,0,3.1-.47,4.26-1.4ZM133.61,71.54c0,2.56,2.09,4.66,4.72,4.66s4.57-2.1,4.57-4.66-2.01-4.66-4.57-4.66-4.72,2.1-4.72,4.66Z"/>
      <path class="cls-1" d="M85.18,87.75c4.66-1.36,11.94-7.86,10.15-12.09-.09-.2.19-.35.31-.17,5.93,9.01,4.84,21.24-3.18,29.01-8.56,8.29-21.91,8.5-30.72.83-.55-.39-1.07-.83-1.55-1.34-4.37-4.55-3.98-11.72,1.97-15.17,5.39-3.13,14.54,1.4,23.02-1.08"/>
      <path class="cls-3" d="M65.39.11c-13.3-.93-27.01,4.31-34.9,9.08C11.93,20.4,0,41.02,0,64.87c0,31.86,22.83,58.3,52.96,63.91.61.11.85-.75.27-.98-12.18-4.7-20.82-16.55-20.82-30.42,0-17.99,14.54-32.58,32.47-32.58.19,0,.38.03.57.03v-.19c17.67-.31,31.9-14.75,31.9-32.55S86.39,1.57,65.39.11M65.33,45.47c-9.54,4.41-14.49-.22-23.27,1.69-4.32.94-9.95,2.07-14.41,10.62-.1.19-.26.37-.32.16-3.36-11.47,2.91-23.21,9.29-28.48,11.5-9.5,27.71-7.56,33.03-.75,4.54,5.82,2.35,13.67-4.32,16.76Z"/>
    </g>
  </g>
</svg>